<svg xmlns="http://www.w3.org/2000/svg" fill="none" height="22" viewBox="0 0 121 22" width="121"><g fill="#fff"><path d="m116.965 17-2.826-4.104-3.816-5.07601h2.574l2.556 3.72601 4.086 5.454zm-2.646-5.526 2.574-3.65401h2.52l-3.996 5.23801zm.9 1.692-2.772 3.834h-2.502l4.194-5.436z"></path><path d="m100.065 17v-9.18h2.214v2.16h.054v7.02zm6.444 0v-5.796c0-.564-.144-.99-.432-1.278s-.708-.432-1.26-.432c-.48 0-.912.108-1.296.324-.372.216-.666.516-.882.9-.204.384-.306.828-.306 1.332l-.234-2.196c.312-.672.768-1.206 1.368-1.602.6-.408 1.32-.612 2.16-.612.996 0 1.77.282 2.322.846.564.564.846 1.314.846 2.25v6.264z"></path><path d="m93.5011 17.18c-.972 0-1.83-.204-2.574-.612-.732-.408-1.302-.972-1.71-1.692-.408-.732-.612-1.566-.612-2.502s.204-1.758.612-2.466.978-1.26 1.71-1.656c.744-.408 1.602-.612 2.574-.612.984 0 1.842.204 2.574.612.732.396 1.302.948 1.71 1.656s.612 1.53.612 2.466-.21 1.77-.63 2.502c-.408.72-.978 1.284-1.71 1.692s-1.584.612-2.556.612zm0-1.818c.48 0 .912-.12 1.296-.36.384-.252.684-.6.9-1.044.216-.456.324-.99.324-1.602 0-.9-.24-1.608-.72-2.124-.468-.516-1.068-.774-1.8-.774s-1.338.258-1.818.774-.72 1.224-.72 2.124c0 .612.108 1.146.324 1.602.228.444.528.792.9 1.044.384.24.822.36 1.314.36z"></path><path d="m84.6845 17v-9.18h2.268v9.18zm-.108-10.692v-2.502h2.466v2.502z"></path><path d="m79.2473 17.18c-1.272 0-2.286-.264-3.042-.792-.756-.54-1.17-1.284-1.242-2.232h2.07c.06.468.282.822.666 1.062s.9.36 1.548.36c.588 0 1.026-.09 1.314-.27.3-.192.45-.462.45-.81 0-.252-.084-.456-.252-.612-.168-.168-.486-.306-.954-.414l-1.476-.342c-1.008-.216-1.758-.552-2.25-1.008-.48-.468-.72-1.05-.72-1.746 0-.852.324-1.518.972-1.998.66-.492 1.566-.738 2.718-.738 1.14 0 2.052.246 2.736.738.696.48 1.08 1.146 1.152 1.998h-2.07c-.06-.372-.252-.654-.576-.846-.312-.192-.744-.288-1.296-.288-.516 0-.906.084-1.17.252-.264.156-.396.39-.396.702 0 .24.102.444.306.612.204.156.546.294 1.026.414l1.584.36c.9.204 1.578.558 2.034 1.062.468.504.702 1.098.702 1.782 0 .876-.336 1.554-1.008 2.034s-1.614.72-2.826.72z"></path><path d="m67.9319 17.18c-.636 0-1.188-.132-1.656-.396-.456-.276-.81-.648-1.062-1.116-.24-.468-.36-.996-.36-1.584v-6.26401h2.268v5.79601c0 .564.138.99.414 1.278.288.288.69.432 1.206.432.468 0 .876-.108 1.224-.324.36-.216.642-.516.846-.9.216-.396.324-.84.324-1.332l.234 2.196c-.3.672-.75 1.212-1.35 1.62-.588.396-1.284.594-2.088.594zm3.276-.18v-2.16h-.072v-7.02001h2.286v9.18001z"></path><path d="m54.8875 17v-12.96001h2.34v12.96001zm1.116-5.202v-1.85401h7.29v1.85401zm0-5.90401v-1.854h7.722v1.854z"></path><path d="m50.3171 17v-12.96001h2.34v12.96001z"></path><path d="m36.504 17 4.77-12.96001h2.016l-4.482 12.96001zm9.774 0-4.464-12.96001h2.124l4.752 12.96001zm-7.308-5.094h7.092v1.872h-7.092z"></path></g><path d="m29.9987 5.88468c-.0598 2.53438-2.1245 4.59802-4.6627 4.65522-1.7729.0398-3.4123-.89592-4.2784-2.44183-.8179-1.46043-2.9096-1.46043-3.7204-.00703-.2238.4017-.5062.76945-.8355 1.09152-.8121.79286-.307 2.18534.8121 2.29664 2.4608.2448 4.3497 2.3458 4.2946 4.8534-.0551 2.5344-2.1164 4.6028-4.6534 4.6649-1.7824.0445-3.4277-.8971-4.2946-2.4536-.8051-1.4476-2.90612-1.4464-3.71234.0012-1.54798 2.7803-5.30254 3.2931-7.54403 1.054-.875357-.8749-1.3745326-2.0308-1.40267121-3.2557-.06327889-2.6866 2.09171121-4.8861 4.77277121-4.8861 1.73193 0 3.33044.9404 4.17399 2.4536.80856 1.4522 2.91198 1.4428 3.70988.0058.2309-.4146.5215-.7928.8637-1.1231.8097-.7812.3386-2.1631-.8109-2.2709-2.5159-.2366-4.4119-2.40436-4.31711-4.93526.09375-2.49689 2.12571-4.51133 4.62521-4.58508 1.7893-.052702 3.4417.88305 4.3147 2.44419.8156 1.45692 2.9096 1.45692 3.7183.00585.8437-1.51314 2.442-2.4524 4.1728-2.4524 2.6788-.001171 4.8373 2.19569 4.774 4.88468z" fill="#6904f2"></path></svg>