<svg xmlns="http://www.w3.org/2000/svg" xmlns:xlink="http://www.w3.org/1999/xlink" fill="none" height="53" viewBox="0 0 167 53" width="167"><clipPath id="a"><path d="m0 0h167v53h-167z"></path></clipPath><g clip-path="url(#a)"><path clip-rule="evenodd" d="m162.967 1.26573h-1.497v-1.26573h1.497zm-8.769 0h-1.498v-1.26573h1.498zm-8.75 0h-1.517v-1.26573h1.517zm-8.77 0h-1.497v-1.26573h1.497zm-8.763 0h-1.497v-1.26573h1.497zm-8.75 0h-1.497v-1.26573h1.497zm-8.769 0h-1.498v-1.26573h1.498zm-8.75 0h-1.498v-1.26573h1.498zm-8.7698 0h-1.4974v-1.26573h1.4974zm-8.7305 0h-1.5169v-1.26573h1.5169zm-8.7695 0h-1.4974v-1.26573h1.4974zm-8.7695 0h-1.4974v-1.26573h1.4974zm-8.75 0h-1.4974v-1.26573h1.4974zm-8.7695 0h-1.4974v-1.26573h1.4974zm-8.75 0h-1.4974v-1.26573h1.4974zm-8.7695 0h-1.4974v-1.26573h1.4974zm-8.75 0h-1.5169v-1.26573h1.5169zm-8.7695 0h-1.4974v-1.26573h1.4974zm149.1018 8.1924h-1.921v-1.66636h1.921zm-8.75 0h-1.914v-1.66636h1.914zm-8.77 0h-1.92v-1.66636h1.92zm-8.769 0h-1.914v-1.66636h1.914zm-8.744 0h-1.92v-1.66636h1.92zm-8.769 0h-1.921v-1.66636h1.921zm-8.75 0h-1.914v-1.66636h1.914zm-8.77 0h-1.9201v-1.66636h1.9201zm-8.7496 0h-1.914v-1.66636h1.914zm-8.75 0h-1.914v-1.66636h1.914zm-8.7695 0h-1.914v-1.66636h1.914zm-8.75 0h-1.914v-1.66636h1.914zm-8.7695 0h-1.914v-1.66636h1.914zm-8.75 0h-1.9205v-1.66636h1.9205zm-8.7695 0h-1.914v-1.66636h1.914zm-8.75 0h-1.9205v-1.66636h1.9205zm-8.7695 0h-1.914v-1.66636h1.914zm-8.7695 0h-1.914v-1.66636h1.914zm149.1151 8.17497h-2.331v-2.0205h2.331zm-8.77 0h-2.337v-2.0205h2.337zm-8.769 0h-2.331v-2.0205h2.331zm-8.75 0h-2.331v-2.0205h2.331zm-8.77 0h-2.33v-2.0205h2.33zm-8.743 0h-2.331v-2.0205h2.331zm-8.77 0h-2.33v-2.0205h2.33zm-8.75 0h-2.3303v-2.0205h2.3303zm-8.7691 0h-2.3372v-2.0205h2.3372zm-8.75 0h-2.3307v-2.0205h2.3307zm-8.75 0h-2.3307v-2.0205h2.3307zm-8.7695 0h-2.3307v-2.0205h2.3307zm-8.75 0h-2.3307v-2.0205h2.3307zm-8.763 0h-2.3307v-2.0205h2.3307zm-8.75 0h-2.3372v-2.0205h2.3372zm-8.7695 0h-2.3307v-2.0205h2.3307zm-8.7695 0h-2.3307v-2.0205h2.3307zm-8.75 0h-2.3307v-2.0205h2.3307zm149.1016 8.1924h-2.747v-2.3805h2.747zm-8.75 0h-2.754v-2.3805h2.754zm-8.769 0h-2.748v-2.3805h2.748zm-8.77 0h-2.747v-2.3805h2.747zm-8.75 0h-2.747v-2.3805h2.747zm-8.769 0h-2.754v-2.3805h2.754zm-8.75 0h-2.754v-2.3805h2.754zm-8.77 0h-2.7473v-2.3805h2.7473zm-8.7499 0h-2.7539v-2.3805h2.7539zm-8.75 0h-2.7539v-2.3805h2.7539zm-8.7695 0h-2.7474v-2.3805h2.7474zm-8.75 0h-2.7474v-2.3805h2.7474zm-8.7695 0h-2.7474v-2.3805h2.7474zm-8.75 0h-2.7474v-2.3805h2.7474zm-8.7695 0h-2.7539v-2.3805h2.7539zm-8.75 0h-2.7474v-2.3805h2.7474zm-8.7695 0h-2.7539v-2.3805h2.7539zm-8.7695 0h-2.7474v-2.3805h2.7474zm149.1154 8.1866h-3.171v-2.7521h3.171zm-8.77 0h-3.164v-2.7521h3.164zm-8.769 0h-3.151v-2.7521h3.151zm-8.75 0h-3.164v-2.7521h3.164zm-8.77 0h-3.164v-2.7521h3.164zm-8.75 0h-3.164v-2.7521h3.164zm-8.763 0h-3.164v-2.7521h3.164zm-8.75 0h-3.1704v-2.7521h3.1704zm-8.7694 0h-3.164v-2.7521h3.164zm-8.7695 0h-3.1315v-2.7521h3.1315zm-8.7305 0h-3.164v-2.7521h3.164zm-8.7695 0h-3.164v-2.7521h3.164zm-8.75 0h-3.164v-2.7521h3.164zm-8.7695 0h-3.164v-2.7521h3.164zm-8.75 0h-3.164v-2.7521h3.164zm-8.7695 0h-3.1705v-2.7521h3.1705zm-8.7695 0h-3.151v-2.7521h3.151zm-8.75 0h-3.164v-2.7521h3.164zm149.1014 8.1924h-3.587v-3.1237h3.587zm-8.769 0h-3.568v-3.1237h3.568zm-8.75 0h-3.581v-3.1237h3.581zm-8.77 0h-3.58v-3.1237h3.58zm-8.75 0h-3.58v-3.1237h3.58zm-8.769 0h-3.581v-3.1237h3.581zm-8.75 0h-3.581v-3.1237h3.581zm-8.763 0h-3.5874v-3.1237h3.5874zm-8.7698 0h-3.5676v-3.1237h3.5676zm-8.75 0h-3.5611v-3.1237h3.5611zm-8.7435 0h-3.5871v-3.1237h3.5871zm-8.75 0h-3.5806v-3.1237h3.5806zm-8.7695 0h-3.5871v-3.1237h3.5871zm-8.75 0h-3.5806v-3.1237h3.5806zm-8.763 0h-3.5871v-3.1237h3.5871zm-8.7695 0h-3.5676v-3.1237h3.5676zm-8.75 0h-3.5806v-3.1237h3.5806zm-8.7695 0h-3.5871v-3.1237h3.5871zm149.1148 8.1751h-3.997v-3.4662h3.997zm-8.763 0h-3.997v-3.4662h3.997zm-8.769 0h-3.998v-3.4662h3.998zm-8.75 0h-3.998v-3.4662h3.998zm-8.77 0h-3.997v-3.4662h3.997zm-8.75 0h-3.997v-3.4662h3.997zm-8.769 0h-3.998v-3.4662h3.998zm-8.75 0h-3.9976v-3.4662h3.9976zm-8.7633 0h-3.9973v-3.4662h3.9973zm-8.7695 0h-3.9843v-3.4662h3.9843zm-8.7305 0h-3.9973v-3.4662h3.9973zm-8.7695 0h-3.9973v-3.4662h3.9973zm-8.75 0h-3.9973v-3.4662h3.9973zm-8.7695 0h-3.9973v-3.4662h3.9973zm-8.75 0h-3.9973v-3.4662h3.9973zm-8.763 0h-3.9973v-3.4662h3.9973zm-8.7695 0h-3.9973v-3.4662h3.9973zm-8.75 0h-3.9973v-3.4662h3.9973zm149.0948 8.1866h-4.414v-3.832h4.414zm-8.75 0h-4.414v-3.832h4.414zm-8.763 0h-4.42v-3.832h4.42zm-8.769 0h-4.414v-3.832h4.414zm-8.75 0h-4.421v-3.832h4.421zm-8.77 0h-4.42v-3.832h4.42zm-8.75 0h-4.42v-3.832h4.42zm-8.769 0h-4.4143v-3.832h4.4143zm-8.7503 0h-4.414v-3.832h4.414zm-8.763 0h-4.401v-3.832h4.401zm-8.75 0h-4.414v-3.832h4.414zm-8.75 0h-4.4205v-3.832h4.4205zm-8.7695 0h-4.414v-3.832h4.414zm-8.75 0h-4.4205v-3.832h4.4205zm-8.7695 0h-4.414v-3.832h4.414zm-8.75 0h-4.414v-3.832h4.414zm-8.763 0h-4.4205v-3.832h4.4205zm-8.7695 0h-4.414v-3.832h4.414zm-10.37315-57.29438h-1.4974v-1.2657259h1.4974zm.21485 8.19241h-1.914v-1.66637h1.914zm.20182 8.17497h-2.33067v-2.0205h2.33067zm.21485 8.1924h-2.74733v-2.3805h2.74733zm.20182 8.1866h-3.164v-2.7521h3.164zm.21485 8.1924h-3.58067v-3.1237h3.58067zm.20181 8.1751h-3.99733v-3.4663h3.99733zm.22135 8.1866h-4.4205v-3.832h4.4205z" fill="#fff" fill-rule="evenodd"></path></g></svg>